<?xml version="1.0" standalone="no"?>
<!DOCTYPE svg PUBLIC "-//W3C//DTD SVG 20010904//EN"
 "http://www.w3.org/TR/2001/REC-SVG-20010904/DTD/svg10.dtd">
<svg version="1.0" xmlns="http://www.w3.org/2000/svg"
 width="512.000000pt" height="512.000000pt" viewBox="0 0 512.000000 512.000000"
 preserveAspectRatio="xMidYMid meet">

<g transform="translate(0.000000,512.000000) scale(0.100000,-0.100000)"
fill="#000000" stroke="none">
<path d="M2335 5034 c-16 -2 -80 -11 -142 -19 -392 -54 -792 -223 -1133 -479
-118 -88 -328 -291 -425 -411 -163 -201 -323 -481 -410 -719 -46 -126 -98
-330 -122 -476 -25 -163 -25 -577 0 -740 41 -256 112 -478 227 -715 123 -251
253 -436 450 -638 215 -221 421 -372 685 -502 241 -118 433 -180 705 -228 107
-18 163 -21 390 -21 297 0 419 14 656 79 590 162 1115 554 1449 1080 128 202
247 484 303 715 58 237 67 320 67 605 -1 221 -4 279 -22 385 -47 269 -108 460
-223 695 -122 251 -253 436 -450 639 -216 222 -416 368 -685 501 -240 119
-465 191 -720 230 -104 17 -522 30 -600 19z m535 -271 c941 -126 1709 -866
1880 -1808 111 -612 -41 -1242 -423 -1747 l-51 -67 -42 127 c-49 150 -93 248
-159 357 -198 328 -491 581 -829 719 -56 23 -101 46 -101 51 0 6 32 35 70 66
393 312 507 862 271 1305 -297 558 -1004 731 -1521 373 -412 -285 -565 -817
-367 -1276 68 -160 174 -296 312 -406 41 -33 75 -62 75 -64 0 -3 -34 -18 -75
-34 -357 -139 -670 -405 -867 -737 -65 -109 -109 -208 -157 -354 l-42 -127
-51 67 c-328 434 -491 967 -454 1491 32 452 174 836 445 1201 90 122 314 346
436 436 487 361 1054 508 1650 427z m-101 -723 c146 -41 266 -114 368 -224
152 -161 221 -354 210 -580 -17 -348 -254 -638 -593 -727 -109 -28 -279 -28
-388 0 -271 71 -480 272 -566 546 -33 106 -39 283 -12 396 65 272 251 479 513
575 132 48 328 54 468 14z m31 -1835 c583 -87 1065 -524 1215 -1102 14 -53 28
-119 30 -147 l6 -51 -78 -63 c-318 -259 -710 -430 -1114 -487 -210 -29 -491
-21 -719 21 -364 66 -763 260 -1035 502 -36 32 -37 35 -31 83 4 28 18 92 31
144 142 546 577 964 1131 1085 169 37 379 43 564 15z"/>
</g>
</svg>
